<svg width="162" height="148" viewBox="0 0 162 148" fill="none" xmlns="http://www.w3.org/2000/svg">
<path d="M80.999 0C95.6977 0 110.402 5.25383 121.967 15.7568L114.034 23.6885C104.665 15.3658 92.834 11.2031 81.001 11.2031C70.0128 11.2031 59.0263 14.7928 50.0127 21.9688C48.5549 23.1283 47.1581 24.3741 45.8281 25.7041C44.4983 27.034 43.2513 28.432 42.0918 29.8896C34.9157 38.9033 31.3252 49.8906 31.3252 60.8789H31.3242C31.3242 63.5057 31.5315 66.1319 31.9414 68.7314H40.2041L49.7812 41.4629L57.4355 63.8711L70.1973 21.418L87.334 79.4033L96.1777 42.542L103.992 65.3262L112.895 31.0352L123.394 60.042H130.667C130.504 50.1916 127.455 40.3828 121.525 32.0371L129.537 24.0244C137.761 34.8607 141.876 47.8717 141.876 60.8789C141.876 73.8862 137.763 86.8989 129.537 97.7334C127.199 100.464 124.691 103.237 122.015 106.051L80.999 147.066L41.8652 107.933L49.7861 100.012L80.999 131.225L114.094 98.1299C117.046 94.9901 119.525 92.1852 121.525 89.7197C126.348 82.9319 129.263 75.1763 130.272 67.2178H118.359L114.024 55.2402L104.945 90.2178L97.3975 68.2148L88.0557 107.161L70.1387 46.5381L57.8721 87.3467L49.6865 63.3848L45.29 75.9072H33.6211C35.4045 81.5945 38.2256 87.0179 42.0879 91.8691L34.126 99.8301C24.7903 88.5993 20.1202 74.7381 20.1201 60.8789C20.1201 47.0195 24.7901 33.1577 34.126 21.9268C35.3151 20.4931 36.5753 19.1113 37.9033 17.7832C39.2314 16.4551 40.6151 15.195 42.0469 14.0059C53.2778 4.66988 67.1414 1.86916e-05 80.999 0ZM27.8398 15.6377C23.1311 21.1577 19.2754 27.4001 16.4746 34.1631C13.0792 42.3636 11.2031 51.3872 11.2031 60.877L11.209 61.7627C11.3222 70.9273 13.1853 79.6436 16.4746 87.5879C19.2753 94.3526 23.1322 100.595 27.8408 106.115L19.9023 114.055C14.2082 107.512 9.53828 100.02 6.14844 91.834C2.18808 82.2702 3.75848e-05 71.8133 0 60.877C0 49.9405 2.18807 39.4837 6.14844 29.9199C9.53644 21.7361 14.208 14.2409 19.9004 7.69824L27.8398 15.6377ZM143.819 9.74316C148.739 15.7875 152.81 22.5752 155.852 29.9199V29.9219C159.812 39.4857 162 49.9425 162 60.8789C162 71.8152 159.812 82.2722 155.852 91.8359C152.81 99.1804 148.737 105.968 143.817 112.014L135.854 104.052C139.797 99.0559 143.067 93.5231 145.523 87.5918C148.921 79.3896 150.795 70.3685 150.795 60.8789C150.795 51.3892 148.919 42.3674 145.523 34.165C143.067 28.2338 139.799 22.701 135.855 17.707L143.819 9.74316Z" fill="white"/>
</svg>
